<mxfile host="app.diagrams.net" modified="2021-12-28T05:56:10.270Z" agent="5.0 (Windows NT 10.0; WOW64) AppleWebKit/537.36 (KHTML, like Gecko) Chrome/96.0.4664.110 Safari/537.36" etag="QEGMgTkXscfgc3sNjw_e" version="16.0.0" type="github">
  <diagram id="D8wea0XFghcwHUFaUuU8" name="第 1 页">
    <mxGraphModel dx="1822" dy="762" grid="0" gridSize="10" guides="1" tooltips="1" connect="1" arrows="1" fold="1" page="0" pageScale="1" pageWidth="827" pageHeight="1169" math="0" shadow="0">
      <root>
        <mxCell id="0" />
        <mxCell id="1" parent="0" />
        <mxCell id="nynokqNCh6AsWM2E-FSW-1" value="&lt;font style=&quot;font-size: 14px&quot;&gt;&lt;b&gt;开始&lt;/b&gt;&lt;/font&gt;" style="rounded=1;whiteSpace=wrap;html=1;fillColor=#fff2cc;strokeColor=#d6b656;sketch=1;" vertex="1" parent="1">
          <mxGeometry x="-58" y="313" width="136" height="50" as="geometry" />
        </mxCell>
        <mxCell id="nynokqNCh6AsWM2E-FSW-2" value="&lt;font style=&quot;font-size: 14px&quot;&gt;&lt;b&gt;结束&lt;/b&gt;&lt;/font&gt;" style="rounded=1;whiteSpace=wrap;html=1;fillColor=#fff2cc;strokeColor=#d6b656;sketch=1;" vertex="1" parent="1">
          <mxGeometry x="762" y="313" width="136" height="50" as="geometry" />
        </mxCell>
        <mxCell id="nynokqNCh6AsWM2E-FSW-3" value="&lt;b&gt;线程回收&lt;/b&gt;" style="rounded=1;whiteSpace=wrap;html=1;fontSize=14;fillColor=#d5e8d4;strokeColor=#82b366;sketch=1;" vertex="1" parent="1">
          <mxGeometry x="151" y="313" width="138" height="48" as="geometry" />
        </mxCell>
      </root>
    </mxGraphModel>
  </diagram>
</mxfile>
